{"title":"Last Night (2010) BDRip-AVC MediaClub (RUS. ENG)","uid":9903678,"size":2212981996,"categoryP":"video","categoryS":"hd___movies","magnet":"?xt=urn:btih:544bde0a61c9c36f5765cb790e71bb0fedce0e92&amp;dn=Last+Night+%282010%29+BDRip-AVC+MediaClub+%28RUS.+ENG%29+&amp;tr=udp%3A%2F%2Ftracker.openbittorrent.com%3A80&amp;tr=udp%3A%2F%2Fopen.demonii.com%3A1337&amp;tr=udp%3A%2F%2Ftracker.coppersurfer.tk%3A6969&amp;tr=udp%3A%2F%2Fexodus.desync.com%3A6969","seeders":10,"leechers":1,"uploader":"neni69","files":1,"time":1396811024,"description":" &lt;a href=&quot; http://mediaclub.tv/&quot; rel=&quot;nofollow&quot; target=&quot;_NEW&quot;&gt; http://mediaclub.tv/&lt;/a&gt;   Welcome to MediaClub\n\n===================================================================\n\nUnique ID                      : 229274398476612745144341191703224197108 (0xAC7CA4986B937C57A8809776AADD1FF4)\nComplete name                  : E:MCProschloy.nocju.w.NY.2010.x264.BDRip(AVC)-MediaClubProschloy.nocju.w.NY.2010.x264.BDRip(AVC)-MediaClub.mkv\nFormat                         : Matroska\nFormat version                 : Version 4 / Version 2\nFile size                      : 2.06 GiB\nDuration                       : 1h 32mn\nOverall bit rate               : 3 204 Kbps\nMovie name                     : -= Release MediaClub =-\nEncoded date                   : UTC 2014-04-03 08:55:28\nWriting application            : mkvmerge v6.4.1 ('Omega Point') built on Sep 16 2013 22:05:10\nWriting library                : libebml v1.3.0 + libmatroska v1.4.1\n\nVideo\nID                             : 1\nFormat                         : AVC\nFormat/Info                    : Advanced Video Codec\nFormat profile                 : &lt;a class=&quot;__cf_email__&quot; href=&quot;/cdn-cgi/l/email-protection&quot; data-cfemail=&quot;8dc5e4eae5cdc1b9a3bc&quot;&gt;[email&amp;#160;protected]&lt;/a&gt;&lt;script cf-hash='f9e31' type=&quot;text/javascript&quot;&gt;\n/* &lt;![CDATA[ */!function(){try{var t=&quot;currentScript&quot;in document?document.currentScript:function(){for(var t=document.getElementsByTagName(&quot;script&quot;),e=t.length;e--;)if(t[e].getAttribute(&quot;cf-hash&quot;))return t[e]}();if(t&amp;&amp;t.previousSibling){var e,r,n,i,c=t.previousSibling,a=c.getAttribute(&quot;data-cfemail&quot;);if(a){for(e=&quot;&quot;,r=parseInt(a.substr(0,2),16),n=2;a.length-n;n+=2)i=parseInt(a.substr(n,2),16)^r,e+=String.fromCharCode(i);e=document.createTextNode(e),c.parentNode.replaceChild(e,c)}}}catch(u){}}();/* ]]&gt; */&lt;/script&gt;\nFormat settings, CABAC         : Yes\nFormat settings, ReFrames      : 10 frames\nCodec ID                       : V_MPEG4/ISO/AVC\nDuration                       : 1h 32mn\nBit rate                       : 2 307 Kbps\nWidth                          : 1 024 pixels\nHeight                         : 440 pixels\nDisplay aspect ratio           : 2.35:1\nFrame rate                     : 24.000 fps\nColor space                    : YUV\nChroma subsampling             : 4:2:0\nBit depth                      : 8 bits\nScan type                      : Progressive\nBits/(Pixel*Frame)             : 0.213\nStream size                    : 1.44 GiB (70%)\nTitle                          : Proschloy.nocju.w.NY.2010.x264.BDRip(AVC)-neni\nWriting library                : x264 core 142 r2409+42 04be48a tMod [8-bit@4:2:0 X86_64]\nEncoding settings              : cabac=1 / ref=10 / deblock=1:-2:-2 / analyse=0x3:0x133 / me=tesa / subme=11 / psy=1 / fade_compensate=0.00 / psy_rd=1.05:0.20 / mixed_ref=1 / me_range=48 / chroma_me=1 / trellis=2 / 8x8dct=1 / cqm=0 / deadzone=21,11 / fast_pskip=0 / chroma_qp_offset=-3 / threads=9 / lookahead_threads=2 / sliced_threads=0 / nr=0 / decimate=0 / interlaced=0 / bluray_compat=0 / constrained_intra=0 / fgo=0 / bframes=10 / b_pyramid=2 / b_adapt=2 / b_bias=0 / direct=3 / weightb=1 / open_gop=0 / weightp=2 / keyint=240 / keyint_min=23 / scenecut=40 / intra_refresh=0 / rc=2pass / mbtree=0 / bitrate=2307 / ratetol=1.0 / qcomp=0.60 / qpmin=0:0:0 / qpmax=69:69:69 / qpstep=4 / cplxblur=20.0 / qblur=0.5 / ip_ratio=1.40 / pb_ratio=1.30 / aq=2:1.20 / aq-sensitivity=10.00 / aq-factor=1.00:1.00:1.00 / aq2=0 / aq3=0\nLanguage                       : English\nDefault                        : Yes\nForced                         : Yes\n\nAudio #1\nID                             : 2\nFormat                         : AC-3\nFormat/Info                    : Audio Coding 3\nMode extension                 : CM (complete main)\nFormat settings, Endianness    : Big\nCodec ID                       : A_AC3\nDuration                       : 1h 32mn\nBit rate mode                  : Constant\nBit rate                       : 448 Kbps\nChannel(s)                     : 6 channels\nChannel positions              : Front: L C R, Side: L R, LFE\nSampling rate                  : 48.0 KHz\nBit depth                      : 16 bits\nCompression mode               : Lossy\nStream size                    : 295 MiB (14%)\nTitle                          : DUB\nLanguage                       : Russian\nDefault                        : Yes\nForced                         : Yes\n\nAudio #2\nID                             : 3\nFormat                         : AC-3\nFormat/Info                    : Audio Coding 3\nMode extension                 : CM (complete main)\nFormat settings, Endianness    : Big\nCodec ID                       : A_AC3\nDuration                       : 1h 32mn\nBit rate mode                  : Constant\nBit rate                       : 448 Kbps\nChannel(s)                     : 6 channels\nChannel positions              : Front: L C R, Side: L R, LFE\nSampling rate                  : 48.0 KHz\nBit depth                      : 16 bits\nCompression mode               : Lossy\nStream size                    : 295 MiB (14%)\nTitle                          : Original\nLanguage                       : English\nDefault                        : No\nForced                         : No\n\nText #1\nID                             : 4\nFormat                         : UTF-8\nCodec ID                       : S_TEXT/UTF8\nCodec ID/Info                  : UTF-8 Plain Text\nLanguage                       : Russian\nDefault                        : No\nForced                         : No\n\nText #2\nID                             : 5\nFormat                         : UTF-8\nCodec ID                       : S_TEXT/UTF8\nCodec ID/Info                  : UTF-8 Plain Text\nLanguage                       : English\nDefault                        : No\nForced                         : No\n\nMenu\n00:00:00.000                   : en:1. Working Dinner\n00:04:49.163                   : en:2. Laura\n00:07:56.893                   : en:3. &quot;I'll save it&quot;\n00:13:07.161                   : en:4. Better Yet\n00:18:20.808                   : en:5. Alex\n00:22:42.361                   : en:6. Preparations\n00:26:33.758                   : en:7. A Appetizer\n00:31:52.035                   : en:8. Just Good Friends\n00:35:37.844                   : en:9. Random Events\n00:40:46.110                   : en:10. Happy and Tempting\n00:45:08.288                   : en:11. Questions\n00:47:59.918                   : en:12. Geography and Timing\n00:54:55.333                   : en:13. Less Than one Hundred Days\n00:59:59.012                   : en:14. Explicit\n01:02:14.480                   : en:15. Play Dirty\n01:07:25.541                   : en:16. If\n01:15:01.538                   : en:17. The Morning After\n01:24:17.677                   : en:18. &quot;Okay?&quot;","torrent":{"xt":"urn:btih:544bde0a61c9c36f5765cb790e71bb0fedce0e92","amp;dn":"Last+Night+%282010%29+BDRip-AVC+MediaClub+%28RUS.+ENG%29+","amp;tr":["udp%3A%2F%2Ftracker.openbittorrent.com%3A80","udp%3A%2F%2Fopen.demonii.com%3A1337","udp%3A%2F%2Ftracker.coppersurfer.tk%3A6969","udp%3A%2F%2Fexodus.desync.com%3A6969"],"infoHash":"544bde0a61c9c36f5765cb790e71bb0fedce0e92","infoHashBuffer":{"type":"Buffer","data":[84,75,222,10,97,201,195,111,87,101,203,121,14,113,187,15,237,206,14,146]},"announce":[],"urlList":[]}}